<?xml version="1.0" encoding="UTF-8"?>
<svg viewBox="0 0 200 200" width="512" height="512" xmlns="http://www.w3.org/2000/svg">
  <defs>
    <clipPath id="clipCircle">
      <circle cx="100" cy="100" r="87" />
    </clipPath>
  </defs>

  <!-- Circle outline -->
  <circle cx="100" cy="100" r="90" fill="none" stroke="#000" stroke-width="4" />

  <!-- Clipped moving wave drawn across 3 wavelengths for clean wrap -->
  <g clip-path="url(#clipCircle)">
    <g transform="translate(-200.00,0)">
      <path d="M 0.00 100.00 L 2.00 102.30 L 4.00 104.60 L 6.00 106.88 L 8.00 109.15 L 10.00 111.39 L 12.00 113.60 L 14.00 115.77 L 16.00 117.90 L 18.00 119.98 L 20.00 122.00 L 22.00 123.96 L 24.00 125.86 L 26.00 127.69 L 28.00 129.44 L 30.00 131.11 L 32.00 132.70 L 34.00 134.19 L 36.00 135.60 L 38.00 136.90 L 40.00 138.11 L 42.00 139.20 L 44.00 140.20 L 46.00 141.08 L 48.00 141.85 L 50.00 142.50 L 52.00 143.04 L 54.00 143.46 L 56.00 143.76 L 58.00 143.94 L 60.00 144.00 L 62.00 143.94 L 64.00 143.76 L 66.00 143.46 L 68.00 143.04 L 70.00 142.50 L 72.00 141.85 L 74.00 141.08 L 76.00 140.20 L 78.00 139.20 L 80.00 138.11 L 82.00 136.90 L 84.00 135.60 L 86.00 134.19 L 88.00 132.70 L 90.00 131.11 L 92.00 129.44 L 94.00 127.69 L 96.00 125.86 L 98.00 123.96 L 100.00 122.00 L 102.00 119.98 L 104.00 117.90 L 106.00 115.77 L 108.00 113.60 L 110.00 111.39 L 112.00 109.15 L 114.00 106.88 L 116.00 104.60 L 118.00 102.30 L 120.00 100.00 L 122.00 97.70 L 124.00 95.40 L 126.00 93.12 L 128.00 90.85 L 130.00 88.61 L 132.00 86.40 L 134.00 84.23 L 136.00 82.10 L 138.00 80.02 L 140.00 78.00 L 142.00 76.04 L 144.00 74.14 L 146.00 72.31 L 148.00 70.56 L 150.00 68.89 L 152.00 67.30 L 154.00 65.81 L 156.00 64.40 L 158.00 63.10 L 160.00 61.89 L 162.00 60.80 L 164.00 59.80 L 166.00 58.92 L 168.00 58.15 L 170.00 57.50 L 172.00 56.96 L 174.00 56.54 L 176.00 56.24 L 178.00 56.06 L 180.00 56.00 L 182.00 56.06 L 184.00 56.24 L 186.00 56.54 L 188.00 56.96 L 190.00 57.50 L 192.00 58.15 L 194.00 58.92 L 196.00 59.80 L 198.00 60.80 L 200.00 61.89 L 202.00 63.10 L 204.00 64.40 L 206.00 65.81 L 208.00 67.30 L 210.00 68.89 L 212.00 70.56 L 214.00 72.31 L 216.00 74.14 L 218.00 76.04 L 220.00 78.00 L 222.00 80.02 L 224.00 82.10 L 226.00 84.23 L 228.00 86.40 L 230.00 88.61 L 232.00 90.85 L 234.00 93.12 L 236.00 95.40 L 238.00 97.70 L 240.00 100.00 L 242.00 102.30 L 244.00 104.60 L 246.00 106.88 L 248.00 109.15 L 250.00 111.39 L 252.00 113.60 L 254.00 115.77 L 256.00 117.90 L 258.00 119.98 L 260.00 122.00 L 262.00 123.96 L 264.00 125.86 L 266.00 127.69 L 268.00 129.44 L 270.00 131.11 L 272.00 132.70 L 274.00 134.19 L 276.00 135.60 L 278.00 136.90 L 280.00 138.11 L 282.00 139.20 L 284.00 140.20 L 286.00 141.08 L 288.00 141.85 L 290.00 142.50 L 292.00 143.04 L 294.00 143.46 L 296.00 143.76 L 298.00 143.94 L 300.00 144.00 L 302.00 143.94 L 304.00 143.76 L 306.00 143.46 L 308.00 143.04 L 310.00 142.50 L 312.00 141.85 L 314.00 141.08 L 316.00 140.20 L 318.00 139.20 L 320.00 138.11 L 322.00 136.90 L 324.00 135.60 L 326.00 134.19 L 328.00 132.70 L 330.00 131.11 L 332.00 129.44 L 334.00 127.69 L 336.00 125.86 L 338.00 123.96 L 340.00 122.00 L 342.00 119.98 L 344.00 117.90 L 346.00 115.77 L 348.00 113.60 L 350.00 111.39 L 352.00 109.15 L 354.00 106.88 L 356.00 104.60 L 358.00 102.30 L 360.00 100.00 L 362.00 97.70 L 364.00 95.40 L 366.00 93.12 L 368.00 90.85 L 370.00 88.61 L 372.00 86.40 L 374.00 84.23 L 376.00 82.10 L 378.00 80.02 L 380.00 78.00 L 382.00 76.04 L 384.00 74.14 L 386.00 72.31 L 388.00 70.56 L 390.00 68.89 L 392.00 67.30 L 394.00 65.81 L 396.00 64.40 L 398.00 63.10 L 400.00 61.89 L 402.00 60.80 L 404.00 59.80 L 406.00 58.92 L 408.00 58.15 L 410.00 57.50 L 412.00 56.96 L 414.00 56.54 L 416.00 56.24 L 418.00 56.06 L 420.00 56.00 L 422.00 56.06 L 424.00 56.24 L 426.00 56.54 L 428.00 56.96 L 430.00 57.50 L 432.00 58.15 L 434.00 58.92 L 436.00 59.80 L 438.00 60.80 L 440.00 61.89 L 442.00 63.10 L 444.00 64.40 L 446.00 65.81 L 448.00 67.30 L 450.00 68.89 L 452.00 70.56 L 454.00 72.31 L 456.00 74.14 L 458.00 76.04 L 460.00 78.00 L 462.00 80.02 L 464.00 82.10 L 466.00 84.23 L 468.00 86.40 L 470.00 88.61 L 472.00 90.85 L 474.00 93.12 L 476.00 95.40 L 478.00 97.70 L 480.00 100.00 L 482.00 102.30 L 484.00 104.60 L 486.00 106.88 L 488.00 109.15 L 490.00 111.39 L 492.00 113.60 L 494.00 115.77 L 496.00 117.90 L 498.00 119.98 L 500.00 122.00 L 502.00 123.96 L 504.00 125.86 L 506.00 127.69 L 508.00 129.44 L 510.00 131.11 L 512.00 132.70 L 514.00 134.19 L 516.00 135.60 L 518.00 136.90 L 520.00 138.11 L 522.00 139.20 L 524.00 140.20 L 526.00 141.08 L 528.00 141.85 L 530.00 142.50 L 532.00 143.04 L 534.00 143.46 L 536.00 143.76 L 538.00 143.94 L 540.00 144.00 L 542.00 143.94 L 544.00 143.76 L 546.00 143.46 L 548.00 143.04 L 550.00 142.50 L 552.00 141.85 L 554.00 141.08 L 556.00 140.20 L 558.00 139.20 L 560.00 138.11 L 562.00 136.90 L 564.00 135.60 L 566.00 134.19 L 568.00 132.70 L 570.00 131.11 L 572.00 129.44 L 574.00 127.69 L 576.00 125.86 L 578.00 123.96 L 580.00 122.00 L 582.00 119.98 L 584.00 117.90 L 586.00 115.77 L 588.00 113.60 L 590.00 111.39 L 592.00 109.15 L 594.00 106.88 L 596.00 104.60 L 598.00 102.30 L 600.00 100.00" fill="none" stroke="#000" stroke-width="4">
        <!-- Translate by exactly one wavelength so the end visual equals the start -->
        <animateTransform attributeName="transform" type="translate"
                          from="0 0" to="-240.0000 0" dur="2s" repeatCount="indefinite" />
      </path>
    </g>
  </g>
</svg>
